<?xml version="1.0" standalone="no"?>
<!DOCTYPE svg PUBLIC "-//W3C//DTD SVG 20010904//EN"
 "http://www.w3.org/TR/2001/REC-SVG-20010904/DTD/svg10.dtd">
<svg version="1.0" xmlns="http://www.w3.org/2000/svg"
 width="512.000000pt" height="512.000000pt" viewBox="0 0 512.000000 512.000000"
 preserveAspectRatio="xMidYMid meet">

<g transform="translate(0.000000,512.000000) scale(0.100000,-0.100000)"
fill="#000000" stroke="none">
<path d="M730 5087 c-139 -57 -253 -146 -335 -262 -105 -147 -120 -240 -52
-314 12 -13 171 -98 352 -189 279 -140 337 -165 375 -165 86 -1 149 57 158
142 4 41 -11 86 -123 381 -70 184 -139 350 -153 369 -47 63 -127 77 -222 38z
m229 -447 c67 -176 120 -324 116 -330 -6 -9 -625 293 -625 306 0 19 67 128
106 172 66 75 211 169 265 171 11 1 48 -85 138 -319z"/>
<path d="M4225 5096 c-16 -7 -40 -24 -52 -37 -12 -13 -79 -173 -149 -354 -112
-288 -128 -338 -129 -390 0 -69 24 -114 78 -142 72 -37 96 -29 452 149 182 91
340 176 352 189 49 54 55 118 18 198 -57 122 -173 251 -288 319 -126 75 -216
97 -282 68z m129 -156 c117 -50 227 -150 286 -261 16 -31 30 -60 30 -63 0 -13
-619 -315 -625 -306 -9 15 237 650 251 650 7 0 33 -9 58 -20z"/>
<path d="M1732 4944 c-45 -31 -44 -52 4 -221 26 -89 53 -166 64 -177 23 -24
75 -24 101 0 27 25 24 60 -22 224 -50 181 -83 219 -147 174z"/>
<path d="M3306 4938 c-19 -18 -35 -58 -65 -168 -46 -164 -49 -199 -22 -224 26
-24 78 -24 101 0 11 11 38 88 64 177 48 169 49 190 4 221 -31 22 -52 20 -82
-6z"/>
<path d="M2480 4574 c-19 -8 -45 -25 -58 -37 -33 -31 -273 -512 -274 -550 -1
-34 39 -77 71 -77 40 0 70 46 186 282 l120 243 35 0 35 0 241 -485 c255 -514
264 -529 342 -549 20 -6 258 -42 527 -80 270 -39 500 -73 512 -76 27 -6 46
-39 38 -64 -3 -10 -174 -182 -380 -382 -206 -200 -384 -382 -396 -403 -15 -26
-22 -55 -21 -90 0 -28 39 -275 86 -548 47 -273 86 -501 86 -507 0 -17 -30 -41
-52 -41 -11 0 -105 45 -208 100 -114 60 -200 100 -218 100 -53 0 -88 -61 -62
-110 8 -16 152 -96 376 -209 135 -68 269 -16 305 119 11 42 5 89 -78 570 -72
416 -88 529 -79 545 6 12 179 185 384 385 206 201 380 376 387 390 49 97 7
228 -88 274 -19 9 -97 25 -173 36 -77 12 -308 45 -514 75 -206 31 -383 58
-393 61 -12 4 -97 166 -253 482 -129 262 -245 487 -257 500 -51 57 -155 77
-227 46z"/>
<path d="M466 3959 c-29 -23 -36 -73 -13 -102 16 -21 253 -127 284 -127 13 0
35 12 50 26 20 20 24 31 19 57 -4 17 -12 37 -19 44 -16 15 -260 123 -280 123
-8 0 -26 -9 -41 -21z"/>
<path d="M4465 3921 c-130 -58 -154 -78 -155 -124 0 -26 45 -67 73 -67 31 0
268 106 285 127 22 29 15 79 -14 102 -15 12 -34 21 -43 21 -9 0 -74 -27 -146
-59z"/>
<path d="M2028 3753 c-9 -10 -36 -59 -61 -109 -25 -50 -53 -94 -62 -98 -9 -3
-248 -40 -532 -81 -310 -45 -528 -81 -549 -91 -96 -46 -138 -177 -89 -274 7
-14 181 -189 387 -390 205 -200 378 -373 384 -384 9 -17 -8 -131 -79 -546 -82
-481 -89 -529 -78 -570 25 -91 101 -150 195 -150 56 0 36 -10 608 291 218 115
402 209 408 209 6 0 76 -34 154 -75 79 -41 150 -75 158 -75 8 0 27 9 42 21 29
23 36 73 14 102 -18 22 -273 156 -325 170 -32 8 -54 8 -85 0 -24 -7 -248 -120
-499 -253 -252 -132 -466 -240 -477 -240 -22 0 -52 24 -52 41 0 6 39 234 86
507 47 273 86 520 86 548 1 35 -6 64 -21 91 -13 22 -191 203 -397 402 -205
200 -376 372 -379 382 -8 25 11 58 38 64 12 2 243 36 512 75 270 38 507 75
527 80 20 6 51 22 68 37 36 30 140 229 140 268 0 55 -86 89 -122 48z"/>
<path d="M114 2826 c-106 -46 -147 -290 -74 -436 28 -54 63 -82 112 -87 37 -4
65 5 203 67 192 85 225 113 225 187 0 84 -18 100 -209 197 -95 47 -184 86
-199 86 -15 -1 -41 -7 -58 -14z m186 -206 l115 -58 -70 -32 c-160 -72 -166
-74 -176 -59 -17 27 -22 102 -10 155 7 30 15 54 19 53 4 0 59 -26 122 -59z"/>
<path d="M4748 2753 c-191 -98 -208 -114 -208 -196 0 -74 33 -102 225 -187
138 -62 166 -71 203 -67 70 8 116 64 142 176 22 92 -3 235 -53 305 -22 31 -72
56 -112 56 -14 0 -103 -39 -197 -87z m213 -127 c12 -53 7 -128 -10 -155 -10
-15 -17 -13 -176 60 l-70 31 115 59 c63 32 118 58 122 58 4 1 12 -23 19 -53z"/>
<path d="M554 1781 c-118 -77 -134 -92 -134 -132 0 -27 44 -69 73 -69 22 0
215 117 259 157 24 22 23 78 -2 103 -35 35 -67 25 -196 -59z"/>
<path d="M4370 1840 c-25 -25 -26 -81 -2 -103 44 -40 237 -157 259 -157 32 0
73 43 73 75 0 35 -26 58 -151 138 -113 71 -146 80 -179 47z"/>
<path d="M1030 961 c-59 -19 -667 -331 -687 -352 -49 -54 -55 -118 -18 -198
77 -164 226 -304 402 -377 98 -40 177 -27 225 37 14 19 83 185 153 369 112
295 127 340 123 381 -5 52 -36 102 -77 123 -36 19 -91 27 -121 17z m-70 -478
c-67 -175 -124 -320 -126 -322 -9 -10 -94 27 -159 70 -81 53 -151 128 -195
210 -16 31 -30 60 -30 63 0 12 615 314 624 306 5 -5 -45 -149 -114 -327z"/>
<path d="M3995 955 c-72 -26 -115 -100 -102 -178 9 -56 249 -670 275 -706 53
-72 140 -78 265 -18 161 76 290 204 362 359 56 120 20 194 -125 262 -72 34
-81 36 -107 24 -32 -15 -49 -54 -39 -92 5 -20 23 -34 76 -61 39 -19 70 -38 70
-41 0 -4 -14 -32 -31 -64 -44 -83 -119 -163 -202 -213 -70 -44 -142 -75 -151
-66 -13 14 -247 640 -241 648 3 6 57 -15 130 -51 108 -54 128 -61 152 -52 38
13 60 55 48 91 -8 23 -34 40 -140 95 -147 75 -182 84 -240 63z"/>
<path d="M1932 626 c-29 -16 -153 -241 -154 -280 -1 -20 7 -37 26 -53 58 -50
91 -24 175 138 72 138 75 166 21 194 -35 18 -38 18 -68 1z"/>
<path d="M3118 624 c-30 -16 -44 -50 -34 -82 4 -11 34 -70 67 -131 79 -145
109 -166 165 -118 19 16 27 33 26 53 -1 39 -125 264 -154 280 -29 17 -37 17
-70 -2z"/>
</g>
</svg>
