<?xml version="1.0" standalone="no"?>
<!DOCTYPE svg PUBLIC "-//W3C//DTD SVG 20010904//EN"
 "http://www.w3.org/TR/2001/REC-SVG-20010904/DTD/svg10.dtd">
<svg version="1.0" xmlns="http://www.w3.org/2000/svg"
 width="512.000000pt" height="512.000000pt" viewBox="0 0 512.000000 512.000000"
 preserveAspectRatio="xMidYMid meet">

<g transform="translate(0.000000,512.000000) scale(0.100000,-0.100000)"
fill="#000000" stroke="none">
<path d="M2599 5098 c-28 -19 -55 -66 -156 -268 l-123 -245 -257 -37 c-142
-21 -273 -44 -291 -53 -50 -23 -74 -69 -69 -135 l4 -54 198 -194 198 -195 -42
-246 c-23 -135 -41 -265 -41 -288 0 -75 86 -144 158 -129 15 4 130 60 256 126
127 66 234 120 239 120 5 0 112 -54 238 -121 126 -66 244 -123 263 -126 63
-10 133 41 150 109 4 17 -12 134 -39 290 l-46 263 195 191 c210 208 226 231
207 301 -20 72 -72 103 -201 118 -47 6 -59 4 -83 -15 -20 -16 -27 -30 -27 -56
0 -45 26 -66 96 -79 l56 -10 -191 -187 c-161 -159 -191 -193 -197 -225 -5 -25
6 -113 35 -281 23 -135 40 -247 37 -249 -3 -3 -105 48 -228 113 -176 93 -231
118 -263 119 -32 0 -86 -24 -270 -121 -126 -67 -231 -120 -232 -119 -1 0 17
115 41 254 34 199 42 261 34 290 -7 28 -49 75 -200 222 l-190 185 233 33 c282
39 298 43 331 78 14 16 77 129 139 253 l112 225 113 -230 c63 -129 124 -240
139 -252 31 -27 85 -43 147 -43 38 0 50 5 67 26 12 15 21 35 21 45 0 33 -42
69 -90 77 l-45 7 -115 232 c-63 127 -124 241 -135 253 -49 53 -120 65 -176 28z"/>
<path d="M1205 4805 c-44 -43 -29 -79 73 -177 75 -72 106 -83 149 -53 55 38
34 94 -73 194 -74 70 -108 78 -149 36z"/>
<path d="M3974 4748 c-72 -70 -84 -86 -84 -115 0 -42 30 -73 72 -73 26 0 45
14 115 83 92 93 104 124 60 165 -43 40 -71 30 -163 -60z"/>
<path d="M2536 4409 c-18 -14 -26 -30 -26 -53 0 -41 17 -64 55 -74 l30 -8 3
-187 2 -186 27 -20 c42 -34 85 -26 108 20 19 35 22 443 4 482 -15 34 -49 47
-118 47 -44 0 -65 -5 -85 -21z"/>
<path d="M1112 4173 c-12 -10 -24 -30 -28 -45 -5 -22 0 -33 24 -58 l30 -30
132 0 132 0 30 30 c24 25 29 36 24 58 -13 55 -35 62 -186 62 -117 0 -141 -3
-158 -17z"/>
<path d="M3910 4170 c-30 -30 -27 -83 7 -110 26 -20 37 -21 166 -18 132 3 140
4 158 27 25 30 24 62 -2 95 -20 26 -21 26 -165 26 -131 0 -146 -2 -164 -20z"/>
<path d="M1268 3592 c-56 -56 -88 -96 -88 -110 0 -35 42 -75 79 -75 27 0 45
13 107 74 42 41 80 85 85 98 19 47 -24 101 -78 101 -9 0 -56 -40 -105 -88z"/>
<path d="M3916 3659 c-19 -15 -26 -30 -26 -56 0 -30 10 -46 68 -105 77 -81
112 -100 154 -86 33 12 48 35 48 73 0 20 -19 46 -67 97 -97 100 -129 114 -177
77z"/>
<path d="M4491 3323 c-26 -25 -260 -292 -334 -381 -28 -35 -35 -78 -17 -113
17 -31 64 -49 130 -49 l60 0 0 -164 c0 -150 2 -165 21 -190 27 -34 77 -36 107
-3 21 22 22 31 22 239 0 245 -1 248 -77 271 l-43 12 95 108 c52 59 97 109 101
110 4 1 51 -47 105 -108 l97 -110 -44 -13 c-77 -23 -84 -43 -84 -265 0 -211 9
-251 56 -263 37 -9 76 6 91 36 9 17 13 76 13 183 l0 157 60 0 c73 0 113 18
130 59 16 40 7 72 -33 118 -137 160 -313 361 -330 376 -31 27 -91 22 -126 -10z"/>
<path d="M1676 3105 c-53 -19 -85 -44 -121 -94 l-30 -43 -3 -293 -3 -293 -157
-4 c-174 -4 -205 -13 -269 -80 -67 -70 -73 -96 -73 -359 l0 -236 -75 -5 c-94
-6 -155 -40 -200 -112 l-30 -49 -3 -259 -3 -258 -33 0 c-97 0 -195 -62 -240
-152 l-26 -52 0 -387 0 -388 26 -20 27 -21 2213 0 c2191 0 2214 0 2234 20 11
11 22 30 25 43 4 13 5 187 3 387 -3 358 -3 366 -26 412 -46 92 -149 158 -249
158 l-33 0 0 249 c0 195 -3 256 -15 284 -38 91 -126 147 -232 147 l-63 0 0
210 c0 115 -5 232 -11 260 -15 72 -64 137 -129 174 -54 30 -58 31 -207 34
l-151 4 -4 281 c-3 266 -4 284 -25 322 -12 22 -36 54 -55 72 -68 66 -22 63
-1072 63 -790 -1 -958 -3 -990 -15z m1965 -164 c18 -22 19 -42 19 -292 l0
-269 -165 0 c-163 0 -166 0 -190 -25 -30 -30 -32 -64 -4 -99 l20 -26 375 0
c313 0 380 -2 404 -15 58 -30 60 -38 60 -287 l0 -228 -1495 0 -1495 0 0 220
c0 181 3 226 16 251 31 61 -2 59 981 59 l897 0 23 22 c33 30 31 80 -3 107 -26
21 -34 21 -720 21 l-694 0 0 268 c0 280 1 286 45 311 14 7 291 10 963 8 l944
-2 19 -24z m792 -1403 c45 -24 46 -32 47 -280 l0 -238 -1312 0 c-1016 -1
-1317 -3 -1329 -13 -26 -20 -40 -55 -33 -82 15 -58 -78 -55 1462 -55 1539 0
1460 3 1499 -56 16 -25 18 -58 21 -346 l3 -318 -2115 0 -2116 0 0 315 c0 351
1 359 64 389 30 14 89 16 499 16 437 0 466 1 488 18 33 27 30 78 -5 109 l-27
23 -360 0 -359 0 0 236 0 236 29 29 29 29 1747 0 c1308 0 1752 -3 1768 -12z"/>
<path d="M518 2939 c-20 -11 -345 -380 -372 -422 -24 -36 -14 -89 21 -117 20
-16 40 -20 94 -20 l68 0 3 -170 c3 -159 4 -171 25 -191 29 -29 77 -29 106 0
21 20 22 31 25 214 5 254 -4 281 -96 296 l-34 6 96 110 c53 61 100 111 105
113 4 1 54 -49 110 -113 l102 -115 -36 0 c-27 0 -44 -8 -66 -29 l-29 -29 0
-210 c0 -116 3 -218 6 -227 10 -26 62 -44 94 -33 43 15 50 45 50 218 l0 160
71 0 c65 0 73 2 100 29 21 22 29 39 29 65 0 32 -19 57 -181 243 -100 115 -191
213 -203 220 -26 15 -65 16 -88 2z"/>
</g>
</svg>
